<?xml version="1.0" standalone="no"?>
<!DOCTYPE svg PUBLIC "-//W3C//DTD SVG 20010904//EN"
 "http://www.w3.org/TR/2001/REC-SVG-20010904/DTD/svg10.dtd">
<svg version="1.0" xmlns="http://www.w3.org/2000/svg"
 width="50.000000pt" height="50.000000pt" viewBox="0 0 50.000000 50.000000"
 preserveAspectRatio="xMidYMid meet">

<g transform="translate(0.000000,50.000000) scale(0.100000,-0.100000)"
fill="#000000" stroke="none">
<path d="M0 250 l0 -250 250 0 250 0 0 250 0 250 -250 0 -250 0 0 -250z m470
215 c13 -16 5 -55 -12 -55 -16 0 -48 31 -48 46 0 24 42 31 60 9z m-179 -149
c-88 -89 -109 -114 -99 -124 10 -10 35 11 124 99 61 61 114 107 117 102 3 -5
-44 -60 -106 -121 -84 -84 -120 -113 -146 -118 l-34 -7 7 34 c5 26 34 62 118
146 61 62 116 109 121 106 5 -3 -41 -56 -102 -117z m24 74 c-4 -6 -62 -10
-141 -10 l-134 0 0 -170 0 -170 170 0 170 0 0 134 c0 79 4 137 10 141 6 4 10
-47 10 -144 l0 -151 -190 0 -190 0 0 190 0 190 151 0 c97 0 148 -4 144 -10z"/>
</g>
</svg>
